<?xml version="1.0" standalone="no"?><!DOCTYPE svg PUBLIC "-//W3C//DTD SVG 1.1//EN" "http://www.w3.org/Graphics/SVG/1.1/DTD/svg11.dtd"><svg t="1594348135488" class="icon" viewBox="0 0 1024 1024" version="1.1" xmlns="http://www.w3.org/2000/svg" p-id="3353" width="128" height="128" xmlns:xlink="http://www.w3.org/1999/xlink"><defs><style type="text/css"></style></defs><path d="M512 0C230.4 0 0 230.4 0 512c0 281.6 230.4 512 512 512s512-230.4 512-512C1024 230.4 793.6 0 512 0zM512 972.8c-253.44 0-460.8-207.36-460.8-460.8S258.56 51.2 512 51.2s460.8 207.36 460.8 460.8S765.44 972.8 512 972.8z" p-id="3354" fill="#8a8a8a"></path><path d="M512 768m-35.84 0a1.4 1.4 0 1 0 71.68 0 1.4 1.4 0 1 0-71.68 0Z" p-id="3355" fill="#8a8a8a"></path><path d="M627.2 230.4c-35.84-28.16-84.48-38.4-145.92-30.72-61.44 7.68-104.96 51.2-122.88 87.04-15.36 28.16-20.48 66.56-20.48 66.56-2.56 12.8 7.68 28.16 20.48 28.16 12.8 2.56 28.16-7.68 28.16-20.48 2.56-7.68 7.68-35.84 15.36-53.76 5.12-7.68 28.16-51.2 84.48-58.88 46.08-5.12 81.92 0 107.52 20.48 28.16 23.04 38.4 48.64 40.96 84.48 0 33.28-58.88 104.96-89.6 130.56-25.6 23.04-71.68 94.72-66.56 168.96 0 12.8 12.8 23.04 25.6 23.04 0 0 2.56 0 2.56 0 15.36 0 25.6-12.8 23.04-28.16-5.12-53.76 33.28-110.08 48.64-125.44 0 0 107.52-97.28 107.52-168.96C686.08 286.72 652.8 250.88 627.2 230.4z" p-id="3356" fill="#8a8a8a"></path></svg>