<svg class="icon" viewBox="0 0 1024 1024" xmlns="http://www.w3.org/2000/svg" width="200" height="200"><path d="M1003.976 610.816c28.558-114.257-2.856-188.844-2.856-188.844l-109.297-5.36a397.158 397.158 0 0 0-41.421-96.57l73.73-83.714c-60.595-100.993-135.55-131.503-135.55-131.503l-81.187 73.587a397.774 397.774 0 0 0-97.553-40.453l-6.984-109.96C488.602-.577 414.014 30.853 414.014 30.853l-5.183 105.705c-34.11 8.575-66.556 21.223-96.554 37.926l-76.843-69.66s-74.955 30.51-135.55 131.503c19.262 21.855 57.155 46.965 59.427 79.115.56 7.936-36.477 101.626-38.07 101.706l-98.353 4.823s-31.422 74.587-2.864 188.844l97.474 6.183a397.27 397.27 0 0 0 43.533 108.73l-64.18 70.81s30.518 74.948 131.512 135.536l73.139-64.42a397.454 397.454 0 0 0 107.76 44.573l4.752 96.834s74.58 31.438 188.844 2.855l6.408-101.073a398.054 398.054 0 0 0 108.816-47.077l77.547 68.292c101.002-60.588 131.52-135.535 131.52-135.535l-70.652-77.947c17.407-31.262 30.47-65.18 39.014-100.898l108.465-6.863zM512 754.734c-129.655 0-234.769-105.105-234.769-234.768S382.337 285.197 512 285.197s234.785 105.105 234.785 234.769S641.663 754.734 512 754.734zm0 0"/></svg>