<svg class="icon" viewBox="0 0 1024 1024" xmlns="http://www.w3.org/2000/svg" width="128" height="128"><path d="M402.885 1023.36H187.214A118.459 118.459 0 0 1 65.619 907.141l-1.6-790.878A123.835 123.835 0 0 1 185.614.044h593.702A118.395 118.395 0 0 1 900.911 116.2v296.307a32.447 32.447 0 0 1-64.829 0V116.2a55.806 55.806 0 0 0-56.702-54.27H185.614a55.87 55.87 0 0 0-56.701 54.27l1.6 790.814a55.806 55.806 0 0 0 56.701 54.206h215.67a30.527 30.527 0 0 1 32.447 31.038 31.999 31.999 0 0 1-32.446 31.039zM258.25 235.042a31.039 31.039 0 1 1 0-62.077h447.98a30.527 30.527 0 0 1 32.383 31.038 31.999 31.999 0 0 1-32.318 31.039H258.25zm0 198.391a31.039 31.039 0 1 1 0-62.077h447.98a31.039 31.039 0 1 1 .065 61.95l-448.045.063zm.064 200.696a31.039 31.039 0 1 1 0-62.014H363.59a30.527 30.527 0 0 1 32.383 31.04 31.999 31.999 0 0 1-32.383 30.91l-105.275.064zM838.385 1024H595.709L474.114 822.6l121.594-201.463h242.678L959.98 822.601 838.386 1024zm-205.11-62.013h167.289L884.272 822.6l-83.708-139.45h-166.97l-83.708 139.514 83.389 139.322zm62.013-103.612a44.798 44.798 0 0 0 43.134 0 40.51 40.51 0 0 0 0-71.613 44.798 44.798 0 0 0-43.134 0 40.702 40.702 0 0 0 0 71.613z"/></svg>